<svg width="1550" height="550" viewBox="0 0 1550 550" fill="none" xmlns="http://www.w3.org/2000/svg">
<path fill-rule="evenodd" clip-rule="evenodd" d="M69 121.259C69 100.288 86.0008 83.2872 106.972 83.2872H202.89C205.22 83.2872 207.109 85.1761 207.109 87.5063V87.5063C207.109 89.8365 205.22 91.7255 202.89 91.7255H106.972C90.6611 91.7255 77.4383 104.948 77.4383 121.259V329.538C77.4383 331.485 77.5722 332.972 78.0122 334.218C80.0623 340.023 85.9807 348.249 98.9359 348.249C106.086 348.249 111.987 344.198 116.363 339.6C118.514 337.341 120.178 335.068 121.308 333.36C121.87 332.51 122.294 331.808 122.577 331.325C122.71 331.098 122.812 330.919 122.89 330.781L122.911 330.745C122.944 330.687 122.991 330.604 123.032 330.535L123.033 330.533C123.048 330.507 123.109 330.404 123.187 330.289L123.188 330.287C123.206 330.261 123.364 330.022 123.602 329.766C123.681 329.683 123.883 329.491 124.009 329.383C124.13 329.289 124.389 329.123 124.665 328.967C125.02 328.766 125.409 328.626 125.818 328.602C126.411 328.568 127.204 328.621 127.922 328.77C128.662 328.923 129.315 329.347 129.771 329.949C130.295 330.642 130.732 331.452 130.842 331.87C131.836 337.232 137.489 348.249 152.41 348.249C159.602 348.249 165.516 344.288 169.867 339.781C172.01 337.561 173.664 335.317 174.776 333.611C175.331 332.76 175.738 332.063 175.994 331.593C176.091 331.414 176.16 331.281 176.203 331.194C176.21 331.176 176.217 331.157 176.224 331.139C176.535 330.319 177.589 328.577 179.891 328.425C181.505 328.318 182.572 329.156 182.765 329.307L182.773 329.314C183.112 329.58 183.333 329.838 183.418 329.941C183.608 330.169 183.732 330.369 183.766 330.424C183.819 330.509 183.86 330.581 183.883 330.622C183.956 330.754 184.023 330.891 184.05 330.946L184.053 330.953C184.173 331.199 184.177 331.212 184.337 331.537C184.569 332.01 184.918 332.7 185.387 333.537C186.331 335.222 187.745 337.471 189.636 339.708C193.466 344.239 198.826 348.249 205.885 348.249C213.035 348.249 218.936 344.198 223.312 339.6C225.463 337.341 227.127 335.068 228.257 333.36C228.819 332.51 229.243 331.808 229.526 331.325C229.668 331.082 229.774 330.895 229.855 330.754L229.859 330.746C229.892 330.688 229.94 330.604 229.981 330.535L229.982 330.532C229.998 330.507 230.058 330.404 230.136 330.289L230.137 330.287C230.155 330.26 230.313 330.022 230.551 329.766C230.63 329.683 230.832 329.491 230.958 329.383C231.079 329.289 231.338 329.123 231.614 328.967C231.969 328.766 232.358 328.626 232.766 328.602C233.36 328.568 234.153 328.621 234.871 328.77C235.611 328.923 236.264 329.347 236.72 329.949C237.244 330.642 237.681 331.452 237.791 331.87C238.785 337.232 244.438 348.249 259.359 348.249C266.508 348.249 272.408 344.194 276.784 339.593C278.935 337.332 280.599 335.058 281.73 333.349C282.293 332.499 282.718 331.797 283.003 331.312C283.124 331.106 283.218 330.943 283.295 330.808L283.338 330.734C283.371 330.675 283.427 330.579 283.477 330.496C283.49 330.475 283.567 330.346 283.671 330.2C283.675 330.195 283.891 329.876 284.236 329.554C284.347 329.454 284.636 329.225 284.817 329.1C285 328.991 285.395 328.817 285.799 328.672C286.25 328.511 286.731 328.445 287.204 328.521C287.826 328.622 288.586 328.847 289.215 329.129C289.781 329.382 290.244 329.814 290.562 330.347C290.9 330.913 291.184 331.543 291.266 331.87C291.232 331.688 291.194 331.551 291.181 331.506C291.163 331.444 291.148 331.396 291.14 331.37C291.123 331.319 291.111 331.286 291.11 331.282V331.282C291.11 331.282 291.11 331.282 291.11 331.282C291.112 331.289 291.12 331.309 291.133 331.342C291.175 331.444 291.249 331.619 291.359 331.859C291.578 332.337 291.918 333.034 292.382 333.876C293.316 335.568 294.716 337.78 296.592 339.962C300.374 344.363 305.718 348.249 312.834 348.249C320.026 348.249 325.939 344.288 330.29 339.781C332.434 337.561 334.088 335.317 335.2 333.611C335.754 332.76 336.161 332.063 336.417 331.593C336.516 331.413 336.585 331.279 336.628 331.192C336.678 331.054 336.738 330.912 336.809 330.768C337.383 329.604 338.633 328.51 340.379 328.421C341.643 328.357 342.532 328.876 342.774 329.022C343.12 329.231 343.359 329.443 343.467 329.544C343.694 329.754 343.848 329.944 343.897 330.006C343.967 330.092 344.021 330.166 344.053 330.21C344.158 330.358 344.252 330.508 344.287 330.564C344.337 330.643 344.412 330.764 344.492 330.894C344.549 330.988 344.61 331.086 344.664 331.174C344.966 331.661 345.41 332.364 345.994 333.215C347.166 334.927 348.886 337.216 351.093 339.497C355.594 344.148 361.607 348.249 368.757 348.249C377.438 348.249 385.458 341.556 390.901 335.317C394.114 331.635 395.562 326.569 395.562 321.043V121.259C395.562 104.948 382.339 91.7255 366.028 91.7255H355.016C352.686 91.7255 350.797 89.8365 350.797 87.5063V87.5063C350.797 85.1761 352.686 83.2872 355.016 83.2872H366.028C386.999 83.2872 404 100.288 404 121.259V321.043C404 327.925 402.203 335.199 397.259 340.865C391.63 347.316 381.418 356.688 368.757 356.688C358.273 356.688 350.203 350.711 345.03 345.365V345.365C342.756 343.016 338.829 343.053 336.574 345.42C336.504 345.494 336.432 345.568 336.361 345.642C331.242 350.945 323.276 356.688 312.834 356.688C302.315 356.688 294.84 350.87 290.192 345.462V345.462C288.367 343.338 284.962 343.221 283.041 345.258C282.994 345.308 282.946 345.358 282.898 345.409C277.811 350.757 269.845 356.688 259.359 356.688C247.665 356.688 240.029 351.593 235.373 345.769C233.912 343.942 231.037 343.724 229.425 345.418V345.418C224.336 350.765 216.369 356.688 205.885 356.688C195.31 356.688 187.811 350.62 183.191 345.155V345.155C181.508 343.163 178.338 343.071 176.563 344.981C176.359 345.201 176.15 345.422 175.938 345.642C170.818 350.945 162.853 356.688 152.41 356.688C140.716 356.688 133.08 351.593 128.424 345.769C126.963 343.942 124.088 343.724 122.476 345.418V345.418C117.387 350.765 109.42 356.688 98.9359 356.688C81.3761 356.688 72.9141 345.122 70.0556 337.028C69.122 334.385 69 331.717 69 329.538V121.259ZM184.387 332.639C184.387 332.708 184.387 332.865 184.364 333.08C184.378 332.95 184.387 332.801 184.387 332.639ZM237.24 334.838C237.241 334.836 237.241 334.836 237.24 334.838V334.838V334.838ZM344.811 332.639C344.811 332.729 344.809 332.905 344.781 333.138C344.798 332.995 344.811 332.826 344.811 332.639ZM73.2191 375.252C75.5493 375.252 77.4383 377.141 77.4383 379.471V492.966C77.4383 509.277 90.6611 522.5 106.972 522.5H366.028C382.339 522.5 395.562 509.277 395.562 492.966V379.471C395.562 377.141 397.451 375.252 399.781 375.252V375.252C402.111 375.252 404 377.141 404 379.471V492.966C404 513.938 386.999 530.938 366.028 530.938H106.972C86.0008 530.938 69 513.938 69 492.966V379.471C69 377.141 70.889 375.252 73.2191 375.252V375.252Z" fill="#199950"/>
<path fill-rule="evenodd" clip-rule="evenodd" d="M204.9 117.04C204.9 119.37 203.011 121.259 200.681 121.259H101.109C98.7786 121.259 96.8896 119.37 96.8896 117.04V117.04C96.8896 114.71 98.7786 112.821 101.109 112.821H200.681C203.011 112.821 204.9 114.71 204.9 117.04V117.04Z" fill="#199950"/>
<path fill-rule="evenodd" clip-rule="evenodd" d="M377.884 117.04C377.884 119.37 375.995 121.259 373.665 121.259L346.663 121.259C344.332 121.259 342.443 119.37 342.443 117.04V117.04C342.443 114.71 344.332 112.821 346.663 112.821L373.665 112.821C375.995 112.821 377.884 114.71 377.884 117.04V117.04Z" fill="#199950"/>
<path fill-rule="evenodd" clip-rule="evenodd" d="M127.225 142.355C127.225 144.685 125.336 146.574 123.005 146.574H101.066C98.7357 146.574 96.8467 144.685 96.8467 142.355V142.355C96.8467 140.025 98.7357 138.136 101.066 138.136H123.005C125.336 138.136 127.225 140.025 127.225 142.355V142.355Z" fill="#199950"/>
<path fill-rule="evenodd" clip-rule="evenodd" d="M377.884 142.355C377.884 144.685 375.995 146.574 373.665 146.574L336.537 146.574C334.206 146.574 332.317 144.685 332.317 142.355V142.355C332.317 140.025 334.206 138.136 336.537 138.136L373.665 138.136C375.995 138.136 377.884 140.025 377.884 142.355V142.355Z" fill="#199950"/>
<path fill-rule="evenodd" clip-rule="evenodd" d="M258.861 87.5063C258.861 98.2251 267.55 106.914 278.269 106.914C288.988 106.914 297.677 98.2251 297.677 87.5063C297.677 76.7875 288.988 68.0983 278.269 68.0983C267.55 68.0983 258.861 76.7875 258.861 87.5063ZM278.269 59.66C262.89 59.66 250.423 72.1272 250.423 87.5063C250.423 102.885 262.89 115.353 278.269 115.353C293.648 115.353 306.116 102.885 306.116 87.5063C306.116 72.1272 293.648 59.66 278.269 59.66Z" fill="#199950"/>
<path fill-rule="evenodd" clip-rule="evenodd" d="M241.985 87.5063C241.985 89.8365 240.096 91.7255 237.766 91.7255H218.358C216.028 91.7255 214.139 89.8365 214.139 87.5063V87.5063C214.139 85.1761 216.028 83.2872 218.358 83.2872H237.766C240.096 83.2872 241.985 85.1761 241.985 87.5063V87.5063Z" fill="#199950"/>
<path fill-rule="evenodd" clip-rule="evenodd" d="M342.4 87.5063C342.4 89.8365 340.511 91.7255 338.181 91.7255L318.773 91.7255C316.443 91.7255 314.554 89.8365 314.554 87.5063V87.5063C314.554 85.1761 316.443 83.2872 318.773 83.2872L338.181 83.2872C340.511 83.2872 342.4 85.1761 342.4 87.5063V87.5063Z" fill="#199950"/>
<path fill-rule="evenodd" clip-rule="evenodd" d="M278.27 20C280.6 20 282.489 21.889 282.489 24.2192V43.6272C282.489 45.9574 280.6 47.8464 278.27 47.8464V47.8464C275.94 47.8464 274.051 45.9574 274.051 43.6272V24.2192C274.051 21.889 275.94 20 278.27 20V20Z" fill="#199950"/>
<path fill-rule="evenodd" clip-rule="evenodd" d="M278.27 124.635C280.6 124.635 282.489 126.524 282.489 128.854V148.262C282.489 150.592 280.6 152.481 278.27 152.481V152.481C275.94 152.481 274.051 150.592 274.051 148.262V128.854C274.051 126.524 275.94 124.635 278.27 124.635V124.635Z" fill="#199950"/>
<path fill-rule="evenodd" clip-rule="evenodd" d="M232.31 43.596C233.958 41.9483 236.63 41.9483 238.277 43.596L245.338 50.6567C246.986 52.3043 246.986 54.9757 245.338 56.6234V56.6234C243.69 58.2711 241.019 58.2711 239.371 56.6234L232.31 49.5627C230.663 47.9151 230.663 45.2437 232.31 43.596V43.596Z" fill="#199950"/>
<path fill-rule="evenodd" clip-rule="evenodd" d="M304.88 115.805C306.527 114.157 309.199 114.157 310.847 115.805L317.907 122.865C319.555 124.513 319.555 127.184 317.907 128.832V128.832C316.26 130.48 313.588 130.48 311.94 128.832L304.88 121.771C303.232 120.124 303.232 117.452 304.88 115.805V115.805Z" fill="#199950"/>
<path fill-rule="evenodd" clip-rule="evenodd" d="M321.033 43.0291C319.386 41.3815 316.714 41.3815 315.067 43.0291L308.006 50.0898C306.358 51.7375 306.358 54.4089 308.006 56.0566V56.0566C309.654 57.7043 312.325 57.7043 313.973 56.0566L321.033 48.9959C322.681 47.3482 322.681 44.6768 321.033 43.0291V43.0291Z" fill="#199950"/>
<path fill-rule="evenodd" clip-rule="evenodd" d="M245.338 118.336C243.69 116.688 241.019 116.688 239.371 118.336L232.311 125.397C230.663 127.044 230.663 129.716 232.311 131.363V131.363C233.958 133.011 236.63 133.011 238.277 131.363L245.338 124.303C246.986 122.655 246.986 119.984 245.338 118.336V118.336Z" fill="#199950"/>
<path fill-rule="evenodd" clip-rule="evenodd" d="M185.448 180.398L190.371 181.23C200.917 183.013 216.598 188.398 229.743 198.884C243.003 209.462 253.798 225.36 253.798 247.834V349.937H245.36V247.834C245.36 228.454 236.185 214.817 224.481 205.481C214.574 197.578 202.941 192.85 193.887 190.589V272.305H185.448V180.398Z" fill="#199950"/>
<path fill-rule="evenodd" clip-rule="evenodd" d="M210.521 233.489H248.736V241.927H222.631C226.281 246.606 234.004 252.053 248.736 252.053V260.491C224.106 260.491 213.638 246.973 211.716 238.658L210.521 233.489Z" fill="#199950"/>
<path fill-rule="evenodd" clip-rule="evenodd" d="M210.521 274.836H248.736V283.275H222.631C226.281 287.954 234.004 293.401 248.736 293.401V301.839C224.106 301.839 213.638 288.321 211.716 280.006L210.521 274.836Z" fill="#199950"/>
<path fill-rule="evenodd" clip-rule="evenodd" d="M256.708 248.064C254.232 252.14 253.582 257.208 253.856 260.543L245.446 261.233C245.062 256.561 245.891 249.617 249.497 243.682C253.269 237.474 259.947 232.645 270.36 232.645C276.223 232.645 280.868 234.457 284.422 237.343C287.906 240.172 290.113 243.844 291.521 247.274C292.931 250.71 293.616 254.086 293.955 256.563C294.126 257.812 294.212 258.86 294.256 259.609C294.278 259.984 294.29 260.286 294.296 260.503C294.299 260.612 294.3 260.699 294.301 260.764C294.301 260.796 294.302 260.823 294.302 260.843L294.302 260.87L294.302 260.88L294.302 260.885C294.302 260.886 294.302 260.888 290.083 260.888H294.302V338.967H285.864V260.897L285.864 260.894L285.863 260.875C285.863 260.849 285.862 260.801 285.86 260.734C285.857 260.599 285.849 260.385 285.832 260.103C285.799 259.538 285.732 258.709 285.594 257.706C285.317 255.678 284.77 253.049 283.714 250.478C282.657 247.902 281.165 245.568 279.103 243.893C277.109 242.274 274.359 241.083 270.36 241.083C263.023 241.083 259.018 244.262 256.708 248.064ZM285.864 260.898V260.898C285.864 260.899 285.864 260.899 285.864 260.898Z" fill="#199950"/>
<path fill-rule="evenodd" clip-rule="evenodd" d="M271.519 279.055C271.519 276.725 273.408 274.836 275.738 274.836H286.707C289.038 274.836 290.927 276.725 290.927 279.055V279.055C290.927 281.386 289.038 283.275 286.707 283.275H275.738C273.408 283.275 271.519 281.386 271.519 279.055V279.055Z" fill="#199950"/>
<path fill-rule="evenodd" clip-rule="evenodd" d="M271.519 310.277C271.519 307.947 273.408 306.058 275.738 306.058H286.707C289.038 306.058 290.927 307.947 290.927 310.277V310.277C290.927 312.607 289.038 314.496 286.707 314.496H275.738C273.408 314.496 271.519 312.607 271.519 310.277V310.277Z" fill="#199950"/>
<path fill-rule="evenodd" clip-rule="evenodd" d="M264.949 158.008L273.442 235.975L265.108 237.252C265.155 237.485 265.214 237.63 265.223 237.651C265.216 237.635 265.175 237.548 265.076 237.377C264.885 237.045 264.579 236.574 264.133 235.943C263.245 234.683 261.994 233.055 260.454 231.08C260.023 230.528 259.572 229.952 259.105 229.355C256.276 225.74 252.833 221.342 249.515 216.687C245.661 211.279 241.842 205.346 239.261 199.663C236.764 194.165 235.009 188.023 236.514 182.618C238.54 175.342 242.972 169.968 247.522 166.25C252.04 162.558 256.867 160.337 260.129 159.397L264.949 158.008ZM252.861 172.785C249.284 175.707 246.087 179.696 244.643 184.882C243.98 187.265 244.612 191.038 246.944 196.173C249.192 201.122 252.644 206.539 256.387 211.79C258.716 215.057 261.106 218.191 263.328 221.051L257.716 169.53C256.17 170.37 254.496 171.449 252.861 172.785Z" fill="#199950"/>
<path fill-rule="evenodd" clip-rule="evenodd" d="M306.604 190.536L302.408 190.979C306.604 190.536 306.604 190.538 306.604 190.54L306.605 190.546L306.606 190.56L306.61 190.598C306.613 190.628 306.616 190.667 306.621 190.716C306.629 190.813 306.641 190.946 306.653 191.115C306.677 191.451 306.705 191.925 306.725 192.52C306.765 193.708 306.774 195.386 306.655 197.411C306.418 201.445 305.667 206.95 303.585 212.745C299.347 224.535 289.62 237.31 268.531 241.289L267.25 234.497L265.329 232.652C265.827 232.134 266.219 231.352 266.497 229.896C266.703 228.817 266.79 227.77 266.898 226.48C266.954 225.82 267.014 225.097 267.099 224.274C267.559 219.782 268.685 213.895 274.885 209.721C279.184 206.827 285.256 201.479 290.405 196.686C292.944 194.321 295.202 192.147 296.824 190.563C297.635 189.772 298.286 189.129 298.733 188.685C298.956 188.464 299.128 188.292 299.244 188.176L299.375 188.045L305.672 181.714L306.604 190.536ZM274.901 230.819C287.029 226.292 292.802 217.797 295.644 209.891C296.719 206.899 297.376 203.971 297.77 201.349C297.247 201.842 296.707 202.347 296.155 202.862C291.024 207.638 284.513 213.411 279.598 216.721C276.612 218.731 275.882 221.337 275.493 225.134C275.445 225.597 275.401 226.12 275.354 226.679C275.244 227.973 275.119 229.457 274.901 230.819ZM298.211 191.417C298.211 191.413 298.211 191.412 298.211 191.413L298.211 191.416L298.211 191.417Z" fill="#199950"/>
<path fill-rule="evenodd" clip-rule="evenodd" d="M144.101 398.035H115.411V425.882H144.101V398.035ZM106.973 389.597V434.32H152.539V389.597H106.973Z" fill="#199950"/>
<path fill-rule="evenodd" clip-rule="evenodd" d="M348.307 398.035H320.461V425.882H348.307V398.035ZM312.022 389.597V434.32H356.745V389.597H312.022Z" fill="#199950"/>
<path fill-rule="evenodd" clip-rule="evenodd" d="M230.791 405.422L276.033 464.698H399.78V473.136H271.858L230.798 419.339L189.823 473.136H73.2188V464.698H185.643L230.791 405.422Z" fill="#199950"/>
<path fill-rule="evenodd" clip-rule="evenodd" d="M182.917 527.141V469.761H191.355V527.141H182.917Z" fill="#199950"/>
<path fill-rule="evenodd" clip-rule="evenodd" d="M125.536 527.141V469.761H133.974V527.141H125.536Z" fill="#199950"/>
<path fill-rule="evenodd" clip-rule="evenodd" d="M182.917 468.073L182.917 384.534L191.355 384.534L191.355 468.073L182.917 468.073Z" fill="#199950"/>
<path fill-rule="evenodd" clip-rule="evenodd" d="M267.3 468.073L267.3 384.534L275.738 384.534L275.738 468.073L267.3 468.073Z" fill="#199950"/>
<path fill-rule="evenodd" clip-rule="evenodd" d="M269.831 527.141V469.761H278.269V527.141H269.831Z" fill="#199950"/>
<path fill-rule="evenodd" clip-rule="evenodd" d="M326.368 527.141V469.761H334.806V527.141H326.368Z" fill="#199950"/>
<path fill-rule="evenodd" clip-rule="evenodd" d="M275.738 387.909L182.917 387.909L182.917 379.471L275.738 379.471L275.738 387.909Z" fill="#199950"/>
<path fill-rule="evenodd" clip-rule="evenodd" d="M303.576 217.456H387.219V235.647L403.524 250.634L397.813 256.847L378.781 239.352V225.894H312.014V239.352L292.982 256.847L287.271 250.634L303.576 235.647V217.456Z" fill="#199950"/>
<path fill-rule="evenodd" clip-rule="evenodd" d="M396.87 258.382H292.657V249.943H396.87V258.382Z" fill="#199950"/>
<path fill-rule="evenodd" clip-rule="evenodd" d="M344.932 256.272V335.17H336.494V256.272H344.932Z" fill="#199950"/>
<path fill-rule="evenodd" clip-rule="evenodd" d="M396.106 329.787L339.147 258.483L345.74 253.217L402.699 324.52L396.106 329.787Z" fill="#199950"/>
<path fill-rule="evenodd" clip-rule="evenodd" d="M147.054 171.045H117.52C114.025 171.045 111.191 173.879 111.191 177.374C111.191 180.869 114.025 183.703 117.52 183.703H147.054C150.549 183.703 153.383 180.869 153.383 177.374C153.383 173.879 150.549 171.045 147.054 171.045ZM117.52 162.607C109.364 162.607 102.753 169.218 102.753 177.374C102.753 185.53 109.364 192.141 117.52 192.141H147.054C155.21 192.141 161.821 185.53 161.821 177.374C161.821 169.218 155.21 162.607 147.054 162.607H117.52Z" fill="#199950"/>
<path fill-rule="evenodd" clip-rule="evenodd" d="M149.127 204.243C146.386 198.798 144.529 192.982 144.117 188.291L152.523 187.553C152.815 190.878 154.245 195.644 156.664 200.448C159.077 205.241 162.264 209.651 165.754 212.499C167.013 213.526 168.265 214.524 169.501 215.51C175.783 220.519 181.648 225.196 185.908 231.635C191.18 239.603 193.887 249.921 193.887 266.398V344.874H185.449V266.398C185.449 250.809 182.882 242.353 178.871 236.291C175.407 231.056 170.77 227.344 164.524 222.345C163.227 221.306 161.86 220.212 160.42 219.038C155.719 215.203 151.874 209.698 149.127 204.243Z" fill="#199950"/>
<path fill-rule="evenodd" clip-rule="evenodd" d="M113.76 204.243C116.501 198.798 118.358 192.982 118.77 188.291L110.364 187.553C110.072 190.878 108.642 195.644 106.223 200.448C103.81 205.241 100.623 209.651 97.1325 212.499C95.8736 213.526 94.6218 214.524 93.3862 215.51C87.1038 220.519 81.239 225.196 76.9783 231.635C71.7067 239.603 68.9998 249.921 68.9998 266.398V322.513H77.4381V266.398C77.4381 250.809 80.0051 242.353 84.0156 236.291C87.4795 231.056 92.1166 227.344 98.3625 222.345C99.6598 221.306 101.027 220.212 102.467 219.038C107.168 215.203 111.013 209.698 113.76 204.243Z" fill="#199950"/>
<path d="M569.5 320.14C585.1 320.14 602.52 311.82 602.52 292.84C602.52 271.26 586.4 264.24 554.42 255.14C522.96 246.3 499.04 233.82 499.04 194.56C499.04 165.44 520.62 138.14 560.66 138.14C584.58 138.14 598.1 146.2 606.94 146.2C611.36 146.2 612.66 144.38 614.48 141H617.34L619.16 193.52H615C601.74 169.6 584.06 143.6 557.28 143.6C538.56 143.6 525.56 154.52 525.56 169.86C525.56 189.1 543.24 195.6 569.5 202.62C598.36 210.42 630.34 220.3 630.34 263.46C630.34 300.9 604.86 325.6 566.64 325.6C541.42 325.6 519.58 317.8 512.3 317.8C508.14 317.8 506.58 320.66 504.5 325.6H500.86L498.26 263.72H502.68C515.68 289.72 540.9 320.14 569.5 320.14ZM705.898 261.9H713.438V241.88C713.438 208.86 710.578 200.28 700.178 200.28C695.498 200.28 687.958 202.36 687.958 210.68C687.958 212.76 688.478 215.36 689.518 218.22H696.018C697.318 221.6 698.098 224.98 698.098 229.92C698.098 242.14 688.218 250.2 675.218 250.2C659.098 250.2 652.858 241.36 652.858 228.62C652.858 206.78 671.838 196.64 707.198 196.64C748.018 196.64 761.798 208.08 761.798 245.78V298.56C761.798 309.22 764.918 312.08 769.338 312.08C774.018 312.08 778.438 307.14 779.738 285.3L783.638 285.56C782.338 316.76 772.718 325.6 750.358 325.6C729.298 325.6 717.598 319.1 714.478 306.36C710.318 318.84 702.778 325.6 684.578 325.6C666.378 325.6 646.098 320.14 646.098 294.14C646.098 267.88 668.718 261.9 705.898 261.9ZM702.258 315.2C707.198 315.2 713.438 306.88 713.438 290.24V266.06H711.618C700.698 266.06 695.498 273.86 695.498 289.72V293.88C695.498 312.6 697.318 315.2 702.258 315.2ZM786.194 128H848.854V223.16C853.274 210.16 861.854 196.64 887.594 196.64C911.774 196.64 927.894 208.6 927.894 240.06V318.32H942.454V323H868.874V318.32H879.534V233.82C879.534 211.72 876.414 209.12 869.914 209.12C858.994 209.12 848.854 225.5 848.854 246.56V318.32H860.034V323H786.194V318.32H800.494V132.68H786.194V128ZM1008.81 261.9H1016.35V241.88C1016.35 208.86 1013.49 200.28 1003.09 200.28C998.409 200.28 990.869 202.36 990.869 210.68C990.869 212.76 991.389 215.36 992.429 218.22H998.929C1000.23 221.6 1001.01 224.98 1001.01 229.92C1001.01 242.14 991.129 250.2 978.129 250.2C962.009 250.2 955.769 241.36 955.769 228.62C955.769 206.78 974.749 196.64 1010.11 196.64C1050.93 196.64 1064.71 208.08 1064.71 245.78V298.56C1064.71 309.22 1067.83 312.08 1072.25 312.08C1076.93 312.08 1081.35 307.14 1082.65 285.3L1086.55 285.56C1085.25 316.76 1075.63 325.6 1053.27 325.6C1032.21 325.6 1020.51 319.1 1017.39 306.36C1013.23 318.84 1005.69 325.6 987.489 325.6C969.289 325.6 949.009 320.14 949.009 294.14C949.009 267.88 971.629 261.9 1008.81 261.9ZM1005.17 315.2C1010.11 315.2 1016.35 306.88 1016.35 290.24V266.06H1014.53C1003.61 266.06 998.409 273.86 998.409 289.72V293.88C998.409 312.6 1000.23 315.2 1005.17 315.2ZM1172.04 207.82C1161.38 207.82 1151.76 220.3 1151.76 242.92V291.28C1151.76 305.32 1157.74 318.06 1168.66 318.06C1181.4 318.06 1184 302.72 1184 266.58V253.06C1184 216.4 1180.88 207.82 1172.04 207.82ZM1151.76 128V219C1157.48 206 1166.84 196.64 1186.6 196.64C1216.24 196.64 1234.18 216.92 1234.18 261.38C1234.18 305.84 1215.98 325.6 1180.62 325.6C1162.68 325.6 1153.84 320.66 1150.2 307.66L1148.38 323H1089.1V318.32H1103.4V132.68H1089.1V128H1151.76ZM1304.36 261.9H1311.9V241.88C1311.9 208.86 1309.04 200.28 1298.64 200.28C1293.96 200.28 1286.42 202.36 1286.42 210.68C1286.42 212.76 1286.94 215.36 1287.98 218.22H1294.48C1295.78 221.6 1296.56 224.98 1296.56 229.92C1296.56 242.14 1286.68 250.2 1273.68 250.2C1257.56 250.2 1251.32 241.36 1251.32 228.62C1251.32 206.78 1270.3 196.64 1305.66 196.64C1346.48 196.64 1360.26 208.08 1360.26 245.78V298.56C1360.26 309.22 1363.38 312.08 1367.8 312.08C1372.48 312.08 1376.9 307.14 1378.2 285.3L1382.1 285.56C1380.8 316.76 1371.18 325.6 1348.82 325.6C1327.76 325.6 1316.06 319.1 1312.94 306.36C1308.78 318.84 1301.24 325.6 1283.04 325.6C1264.84 325.6 1244.56 320.14 1244.56 294.14C1244.56 267.88 1267.18 261.9 1304.36 261.9ZM1300.72 315.2C1305.66 315.2 1311.9 306.88 1311.9 290.24V266.06H1310.08C1299.16 266.06 1293.96 273.86 1293.96 289.72V293.88C1293.96 312.6 1295.78 315.2 1300.72 315.2ZM1393.84 285.82V203.92H1379.54V199.24H1393.84V165.7L1442.2 153.74V199.24H1476V203.92H1442.2V291.54C1442.2 306.88 1444.54 315.2 1453.64 315.2C1466.12 315.2 1473.92 303.76 1476.26 286.08L1480.68 286.6C1478.34 306.88 1469.76 325.6 1438.04 325.6C1412.3 325.6 1393.84 318.06 1393.84 285.82Z" fill="#199950"/>
<path d="M530.5 479.46C538.9 479.46 548.28 474.98 548.28 464.76C548.28 453.14 539.6 449.36 522.38 444.46C505.44 439.7 492.56 432.98 492.56 411.84C492.56 396.16 504.18 381.46 525.74 381.46C538.62 381.46 545.9 385.8 550.66 385.8C553.04 385.8 553.74 384.82 554.72 383H556.26L557.24 411.28H555C547.86 398.4 538.34 384.4 523.92 384.4C513.84 384.4 506.84 390.28 506.84 398.54C506.84 408.9 516.36 412.4 530.5 416.18C546.04 420.38 563.26 425.7 563.26 448.94C563.26 469.1 549.54 482.4 528.96 482.4C515.38 482.4 503.62 478.2 499.7 478.2C497.46 478.2 496.62 479.74 495.5 482.4H493.54L492.14 449.08H494.52C501.52 463.08 515.1 479.46 530.5 479.46ZM571.885 383H644.685L646.085 410.72H643.565C635.865 392.38 629.285 386.08 612.345 386.08H607.445V429.34H612.205C621.305 429.34 627.185 421.64 629.565 411H631.665V452.44H629.285C625.925 438.44 620.605 432.98 610.805 432.98H607.445V477.92H612.765C630.545 477.92 642.865 465.74 647.065 450.48H649.865L648.745 481H571.885V477.92H580.145V386.08H571.885V383ZM733.029 383H770.409V385.66H762.709V478.34H770.409V481H727.709V478.34H735.409V390.84H734.849L713.849 481H696.349L671.709 390.42H671.149V478.34H678.849V481H659.809V478.34H667.509V385.66H659.809V383H697.609L716.229 455.1L733.029 383ZM776.827 383H818.687C843.327 383 857.607 388.6 857.607 405.96C857.607 419.4 849.207 426.54 834.507 428.92V429.2C852.147 431.44 862.507 438.86 862.507 453.56C862.507 475.26 844.307 481 817.987 481H776.827V478.34H785.927V385.66H776.827V383ZM813.227 431.44V478.34H819.807C830.587 478.34 833.667 470.22 833.667 457.34V449.92C833.667 438.44 830.027 431.44 816.447 431.44H813.227ZM813.227 385.66V428.78H816.867C826.947 428.78 829.887 422.34 829.887 410.86V404.28C829.887 390.84 827.507 385.66 817.707 385.66H813.227ZM922.414 478.34L912.194 448.1H884.474L873.694 478.34H884.194V481H862.774V478.34H869.354L905.054 382.16H916.534L951.814 478.34H958.254V481H912.474V478.34H922.414ZM898.894 408.34L885.734 445.02H911.074L898.894 408.34ZM962.641 383H1005.34V385.66H997.641V429.9L998.761 429.62L1038.24 385.66H1027.18V383H1051.68V385.66H1043.28L1019.2 412.54L1052.8 478.34H1060.36V481H1015.42V478.34H1022L998.901 433.68L997.641 433.96V478.34H1005.34V481H962.641V478.34H970.341V385.66H962.641V383ZM1122.25 437.74V427.38C1122.25 398.68 1121.41 384.4 1104.61 384.4C1087.67 384.4 1086.55 399.24 1086.55 427.94V438.02C1086.55 464.34 1088.23 479.46 1104.61 479.46C1120.29 479.46 1122.25 465.88 1122.25 437.74ZM1057.85 433.54C1057.85 401.34 1074.51 381.46 1105.73 381.46C1135.83 381.46 1151.09 399.94 1151.09 431.72C1151.09 462.94 1136.39 482.4 1104.05 482.4C1072.83 482.4 1057.85 464.34 1057.85 433.54Z" fill="#199950"/>
</svg>
