<svg width="1550" height="550" viewBox="0 0 1550 550" fill="none" xmlns="http://www.w3.org/2000/svg">
<path fill-rule="evenodd" clip-rule="evenodd" d="M69 121.259C69 100.288 86.0008 83.2872 106.972 83.2872H202.89C205.22 83.2872 207.109 85.1761 207.109 87.5063V87.5063C207.109 89.8365 205.22 91.7255 202.89 91.7255H106.972C90.6611 91.7255 77.4383 104.948 77.4383 121.259V329.538C77.4383 331.485 77.5722 332.972 78.0122 334.218C80.0623 340.023 85.9807 348.249 98.9359 348.249C106.086 348.249 111.987 344.198 116.363 339.6C118.514 337.341 120.178 335.068 121.308 333.36C121.87 332.51 122.294 331.808 122.577 331.325C122.71 331.098 122.812 330.919 122.89 330.781L122.911 330.745C122.944 330.687 122.991 330.604 123.032 330.535L123.033 330.533C123.048 330.507 123.109 330.404 123.187 330.289L123.188 330.287C123.206 330.261 123.364 330.022 123.602 329.766C123.681 329.683 123.883 329.491 124.009 329.383C124.13 329.289 124.389 329.123 124.665 328.967C125.02 328.766 125.409 328.626 125.818 328.602C126.411 328.568 127.204 328.621 127.922 328.77C128.662 328.923 129.315 329.347 129.771 329.949C130.295 330.642 130.732 331.452 130.842 331.87C131.836 337.232 137.489 348.249 152.41 348.249C159.602 348.249 165.516 344.288 169.867 339.781C172.01 337.561 173.664 335.317 174.776 333.611C175.331 332.76 175.738 332.063 175.994 331.593C176.091 331.414 176.16 331.281 176.203 331.194C176.21 331.176 176.217 331.157 176.224 331.139C176.535 330.319 177.589 328.577 179.891 328.425C181.505 328.318 182.572 329.156 182.765 329.307L182.773 329.314C183.112 329.58 183.333 329.838 183.418 329.941C183.608 330.169 183.732 330.369 183.766 330.424C183.819 330.509 183.86 330.581 183.883 330.622C183.956 330.754 184.023 330.891 184.05 330.946L184.053 330.953C184.173 331.199 184.177 331.212 184.337 331.537C184.569 332.01 184.918 332.7 185.387 333.537C186.331 335.222 187.745 337.471 189.636 339.708C193.466 344.239 198.826 348.249 205.885 348.249C213.035 348.249 218.936 344.198 223.312 339.6C225.463 337.341 227.127 335.068 228.257 333.36C228.819 332.51 229.243 331.808 229.526 331.325C229.668 331.082 229.774 330.895 229.855 330.754L229.859 330.746C229.892 330.688 229.94 330.604 229.981 330.535L229.982 330.532C229.998 330.507 230.058 330.404 230.136 330.289L230.137 330.287C230.155 330.26 230.313 330.022 230.551 329.766C230.63 329.683 230.832 329.491 230.958 329.383C231.079 329.289 231.338 329.123 231.614 328.967C231.969 328.766 232.358 328.626 232.766 328.602C233.36 328.568 234.153 328.621 234.871 328.77C235.611 328.923 236.264 329.347 236.72 329.949C237.244 330.642 237.681 331.452 237.791 331.87C238.785 337.232 244.438 348.249 259.359 348.249C266.508 348.249 272.408 344.194 276.784 339.593C278.935 337.332 280.599 335.058 281.73 333.349C282.293 332.499 282.718 331.797 283.003 331.312C283.124 331.106 283.218 330.943 283.295 330.808L283.338 330.734C283.371 330.675 283.427 330.579 283.477 330.496C283.49 330.475 283.567 330.346 283.671 330.2C283.675 330.195 283.891 329.876 284.236 329.554C284.347 329.454 284.636 329.225 284.817 329.1C285 328.991 285.395 328.817 285.799 328.672C286.25 328.511 286.731 328.445 287.204 328.521C287.826 328.622 288.586 328.847 289.215 329.129C289.781 329.382 290.244 329.814 290.562 330.347C290.9 330.913 291.184 331.543 291.266 331.87C291.232 331.688 291.194 331.551 291.181 331.506C291.163 331.444 291.148 331.396 291.14 331.37C291.123 331.319 291.111 331.286 291.11 331.282V331.282C291.11 331.282 291.11 331.282 291.11 331.282C291.112 331.289 291.12 331.309 291.133 331.342C291.175 331.444 291.249 331.619 291.359 331.859C291.578 332.337 291.918 333.034 292.382 333.876C293.316 335.568 294.716 337.78 296.592 339.962C300.374 344.363 305.718 348.249 312.834 348.249C320.026 348.249 325.939 344.288 330.29 339.781C332.434 337.561 334.088 335.317 335.2 333.611C335.754 332.76 336.161 332.063 336.417 331.593C336.516 331.413 336.585 331.279 336.628 331.192C336.678 331.054 336.738 330.912 336.809 330.768C337.383 329.604 338.633 328.51 340.379 328.421C341.643 328.357 342.532 328.876 342.774 329.022C343.12 329.231 343.359 329.443 343.467 329.544C343.694 329.754 343.848 329.944 343.897 330.006C343.967 330.092 344.021 330.166 344.053 330.21C344.158 330.358 344.252 330.508 344.287 330.564C344.337 330.643 344.412 330.764 344.492 330.894C344.549 330.988 344.61 331.086 344.664 331.174C344.966 331.661 345.41 332.364 345.994 333.215C347.166 334.927 348.886 337.216 351.093 339.497C355.594 344.148 361.607 348.249 368.757 348.249C377.438 348.249 385.458 341.556 390.901 335.317C394.114 331.635 395.562 326.569 395.562 321.043V121.259C395.562 104.948 382.339 91.7255 366.028 91.7255H355.016C352.686 91.7255 350.797 89.8365 350.797 87.5063V87.5063C350.797 85.1761 352.686 83.2872 355.016 83.2872H366.028C386.999 83.2872 404 100.288 404 121.259V321.043C404 327.925 402.203 335.199 397.259 340.865C391.63 347.316 381.418 356.688 368.757 356.688C358.273 356.688 350.203 350.711 345.03 345.365V345.365C342.756 343.016 338.829 343.053 336.574 345.42C336.504 345.494 336.432 345.568 336.361 345.642C331.242 350.945 323.276 356.688 312.834 356.688C302.315 356.688 294.84 350.87 290.192 345.462V345.462C288.367 343.338 284.962 343.221 283.041 345.258C282.994 345.308 282.946 345.358 282.898 345.409C277.811 350.757 269.845 356.688 259.359 356.688C247.665 356.688 240.029 351.593 235.373 345.769C233.912 343.942 231.037 343.724 229.425 345.418V345.418C224.336 350.765 216.369 356.688 205.885 356.688C195.31 356.688 187.811 350.62 183.191 345.155V345.155C181.508 343.163 178.338 343.071 176.563 344.981C176.359 345.201 176.15 345.422 175.938 345.642C170.818 350.945 162.853 356.688 152.41 356.688C140.716 356.688 133.08 351.593 128.424 345.769C126.963 343.942 124.088 343.724 122.476 345.418V345.418C117.387 350.765 109.42 356.688 98.9359 356.688C81.3761 356.688 72.9141 345.122 70.0556 337.028C69.122 334.385 69 331.717 69 329.538V121.259ZM184.387 332.639C184.387 332.708 184.387 332.865 184.364 333.08C184.378 332.95 184.387 332.801 184.387 332.639ZM237.24 334.838C237.241 334.836 237.241 334.836 237.24 334.838V334.838V334.838ZM344.811 332.639C344.811 332.729 344.809 332.905 344.781 333.138C344.798 332.995 344.811 332.826 344.811 332.639ZM73.2191 375.252C75.5493 375.252 77.4383 377.141 77.4383 379.471V492.966C77.4383 509.277 90.6611 522.5 106.972 522.5H366.028C382.339 522.5 395.562 509.277 395.562 492.966V379.471C395.562 377.141 397.451 375.252 399.781 375.252V375.252C402.111 375.252 404 377.141 404 379.471V492.966C404 513.938 386.999 530.938 366.028 530.938H106.972C86.0008 530.938 69 513.938 69 492.966V379.471C69 377.141 70.889 375.252 73.2191 375.252V375.252Z" fill="#9D9C45"/>
<path fill-rule="evenodd" clip-rule="evenodd" d="M204.9 117.04C204.9 119.37 203.011 121.259 200.681 121.259H101.109C98.7786 121.259 96.8896 119.37 96.8896 117.04V117.04C96.8896 114.71 98.7786 112.821 101.109 112.821H200.681C203.011 112.821 204.9 114.71 204.9 117.04V117.04Z" fill="#9D9C45"/>
<path fill-rule="evenodd" clip-rule="evenodd" d="M377.884 117.04C377.884 119.37 375.995 121.259 373.665 121.259L346.663 121.259C344.332 121.259 342.443 119.37 342.443 117.04V117.04C342.443 114.71 344.332 112.821 346.663 112.821L373.665 112.821C375.995 112.821 377.884 114.71 377.884 117.04V117.04Z" fill="#9D9C45"/>
<path fill-rule="evenodd" clip-rule="evenodd" d="M127.225 142.355C127.225 144.685 125.336 146.574 123.005 146.574H101.066C98.7357 146.574 96.8467 144.685 96.8467 142.355V142.355C96.8467 140.025 98.7357 138.136 101.066 138.136H123.005C125.336 138.136 127.225 140.025 127.225 142.355V142.355Z" fill="#9D9C45"/>
<path fill-rule="evenodd" clip-rule="evenodd" d="M377.884 142.355C377.884 144.685 375.995 146.574 373.665 146.574L336.537 146.574C334.206 146.574 332.317 144.685 332.317 142.355V142.355C332.317 140.025 334.206 138.136 336.537 138.136L373.665 138.136C375.995 138.136 377.884 140.025 377.884 142.355V142.355Z" fill="#9D9C45"/>
<path fill-rule="evenodd" clip-rule="evenodd" d="M258.861 87.5063C258.861 98.2251 267.55 106.914 278.269 106.914C288.988 106.914 297.677 98.2251 297.677 87.5063C297.677 76.7875 288.988 68.0982 278.269 68.0982C267.55 68.0982 258.861 76.7875 258.861 87.5063ZM278.269 59.6599C262.89 59.6599 250.423 72.1272 250.423 87.5063C250.423 102.885 262.89 115.353 278.269 115.353C293.648 115.353 306.116 102.885 306.116 87.5063C306.116 72.1272 293.648 59.6599 278.269 59.6599Z" fill="#9D9C45"/>
<path fill-rule="evenodd" clip-rule="evenodd" d="M241.985 87.5063C241.985 89.8365 240.096 91.7255 237.766 91.7255H218.358C216.028 91.7255 214.139 89.8365 214.139 87.5063V87.5063C214.139 85.1761 216.028 83.2872 218.358 83.2872H237.766C240.096 83.2872 241.985 85.1761 241.985 87.5063V87.5063Z" fill="#9D9C45"/>
<path fill-rule="evenodd" clip-rule="evenodd" d="M342.4 87.5063C342.4 89.8365 340.511 91.7255 338.181 91.7255L318.773 91.7255C316.443 91.7255 314.554 89.8365 314.554 87.5063V87.5063C314.554 85.1761 316.443 83.2872 318.773 83.2872L338.181 83.2872C340.511 83.2872 342.4 85.1761 342.4 87.5063V87.5063Z" fill="#9D9C45"/>
<path fill-rule="evenodd" clip-rule="evenodd" d="M278.27 20C280.6 20 282.489 21.889 282.489 24.2191V43.6272C282.489 45.9574 280.6 47.8463 278.27 47.8463V47.8463C275.94 47.8463 274.051 45.9574 274.051 43.6272V24.2191C274.051 21.889 275.94 20 278.27 20V20Z" fill="#9D9C45"/>
<path fill-rule="evenodd" clip-rule="evenodd" d="M278.27 124.635C280.6 124.635 282.489 126.524 282.489 128.854V148.262C282.489 150.592 280.6 152.481 278.27 152.481V152.481C275.94 152.481 274.051 150.592 274.051 148.262V128.854C274.051 126.524 275.94 124.635 278.27 124.635V124.635Z" fill="#9D9C45"/>
<path fill-rule="evenodd" clip-rule="evenodd" d="M232.31 43.596C233.958 41.9483 236.63 41.9483 238.277 43.596L245.338 50.6567C246.986 52.3043 246.986 54.9757 245.338 56.6234V56.6234C243.69 58.2711 241.019 58.2711 239.371 56.6234L232.31 49.5627C230.663 47.9151 230.663 45.2437 232.31 43.596V43.596Z" fill="#9D9C45"/>
<path fill-rule="evenodd" clip-rule="evenodd" d="M304.88 115.804C306.527 114.157 309.199 114.157 310.847 115.804L317.907 122.865C319.555 124.513 319.555 127.184 317.907 128.832V128.832C316.26 130.48 313.588 130.48 311.94 128.832L304.88 121.771C303.232 120.124 303.232 117.452 304.88 115.804V115.804Z" fill="#9D9C45"/>
<path fill-rule="evenodd" clip-rule="evenodd" d="M321.033 43.0291C319.386 41.3814 316.714 41.3814 315.067 43.0291L308.006 50.0898C306.358 51.7375 306.358 54.4089 308.006 56.0566V56.0566C309.654 57.7042 312.325 57.7042 313.973 56.0566L321.033 48.9959C322.681 47.3482 322.681 44.6768 321.033 43.0291V43.0291Z" fill="#9D9C45"/>
<path fill-rule="evenodd" clip-rule="evenodd" d="M245.338 118.336C243.69 116.688 241.019 116.688 239.371 118.336L232.311 125.397C230.663 127.044 230.663 129.716 232.311 131.363V131.363C233.958 133.011 236.63 133.011 238.277 131.363L245.338 124.303C246.986 122.655 246.986 119.984 245.338 118.336V118.336Z" fill="#9D9C45"/>
<path fill-rule="evenodd" clip-rule="evenodd" d="M185.448 180.398L190.371 181.23C200.917 183.013 216.598 188.398 229.743 198.884C243.003 209.462 253.798 225.36 253.798 247.834V349.937H245.36V247.834C245.36 228.454 236.185 214.817 224.481 205.481C214.574 197.578 202.941 192.85 193.887 190.589V272.305H185.448V180.398Z" fill="#9D9C45"/>
<path fill-rule="evenodd" clip-rule="evenodd" d="M210.521 233.489H248.736V241.927H222.631C226.281 246.606 234.004 252.053 248.736 252.053V260.491C224.106 260.491 213.638 246.973 211.716 238.658L210.521 233.489Z" fill="#9D9C45"/>
<path fill-rule="evenodd" clip-rule="evenodd" d="M210.521 274.836H248.736V283.275H222.631C226.281 287.954 234.004 293.401 248.736 293.401V301.839C224.106 301.839 213.638 288.321 211.716 280.006L210.521 274.836Z" fill="#9D9C45"/>
<path fill-rule="evenodd" clip-rule="evenodd" d="M256.708 248.064C254.232 252.14 253.582 257.208 253.856 260.543L245.446 261.233C245.062 256.561 245.891 249.617 249.497 243.682C253.269 237.474 259.947 232.645 270.36 232.645C276.223 232.645 280.868 234.457 284.422 237.343C287.906 240.172 290.113 243.844 291.521 247.274C292.931 250.71 293.616 254.086 293.955 256.563C294.126 257.812 294.212 258.86 294.256 259.609C294.278 259.984 294.29 260.286 294.296 260.503C294.299 260.612 294.3 260.699 294.301 260.764C294.301 260.796 294.302 260.823 294.302 260.843L294.302 260.87L294.302 260.88L294.302 260.885C294.302 260.886 294.302 260.888 290.083 260.888H294.302V338.967H285.864V260.897L285.864 260.894L285.863 260.875C285.863 260.849 285.862 260.801 285.86 260.734C285.857 260.599 285.849 260.385 285.832 260.103C285.799 259.538 285.732 258.709 285.594 257.706C285.317 255.678 284.77 253.049 283.714 250.478C282.657 247.902 281.165 245.568 279.103 243.893C277.109 242.274 274.359 241.083 270.36 241.083C263.023 241.083 259.018 244.262 256.708 248.064ZM285.864 260.898V260.898C285.864 260.899 285.864 260.899 285.864 260.898Z" fill="#9D9C45"/>
<path fill-rule="evenodd" clip-rule="evenodd" d="M271.519 279.055C271.519 276.725 273.408 274.836 275.738 274.836H286.707C289.038 274.836 290.927 276.725 290.927 279.055V279.055C290.927 281.386 289.038 283.275 286.707 283.275H275.738C273.408 283.275 271.519 281.386 271.519 279.055V279.055Z" fill="#9D9C45"/>
<path fill-rule="evenodd" clip-rule="evenodd" d="M271.519 310.277C271.519 307.947 273.408 306.058 275.738 306.058H286.707C289.038 306.058 290.927 307.947 290.927 310.277V310.277C290.927 312.607 289.038 314.496 286.707 314.496H275.738C273.408 314.496 271.519 312.607 271.519 310.277V310.277Z" fill="#9D9C45"/>
<path fill-rule="evenodd" clip-rule="evenodd" d="M264.949 158.008L273.442 235.975L265.108 237.252C265.155 237.485 265.214 237.63 265.223 237.651C265.216 237.635 265.175 237.548 265.076 237.377C264.885 237.045 264.579 236.574 264.133 235.943C263.245 234.683 261.994 233.055 260.454 231.08C260.023 230.528 259.572 229.952 259.105 229.355C256.276 225.74 252.833 221.342 249.515 216.687C245.661 211.279 241.842 205.346 239.261 199.663C236.764 194.165 235.009 188.023 236.514 182.618C238.54 175.342 242.972 169.968 247.522 166.25C252.04 162.558 256.867 160.337 260.129 159.397L264.949 158.008ZM252.861 172.785C249.284 175.707 246.087 179.696 244.643 184.882C243.98 187.265 244.612 191.038 246.944 196.173C249.192 201.122 252.644 206.539 256.387 211.79C258.716 215.057 261.106 218.191 263.328 221.051L257.716 169.53C256.17 170.37 254.496 171.449 252.861 172.785Z" fill="#9D9C45"/>
<path fill-rule="evenodd" clip-rule="evenodd" d="M306.603 190.536L302.407 190.979C306.603 190.536 306.603 190.538 306.603 190.54L306.604 190.546L306.605 190.56L306.609 190.598C306.612 190.628 306.615 190.667 306.62 190.716C306.628 190.813 306.64 190.946 306.652 191.115C306.676 191.451 306.704 191.925 306.724 192.52C306.764 193.708 306.773 195.386 306.654 197.411C306.417 201.445 305.666 206.95 303.584 212.745C299.346 224.535 289.619 237.31 268.53 241.289L267.249 234.497L265.328 232.652C265.826 232.134 266.218 231.352 266.496 229.896C266.702 228.817 266.789 227.77 266.897 226.48C266.953 225.82 267.013 225.097 267.098 224.274C267.558 219.782 268.684 213.895 274.884 209.721C279.183 206.827 285.255 201.479 290.404 196.686C292.943 194.321 295.201 192.147 296.823 190.563C297.634 189.772 298.285 189.129 298.732 188.685C298.955 188.464 299.127 188.292 299.243 188.176L299.374 188.045L305.671 181.714L306.603 190.536ZM274.9 230.819C287.028 226.292 292.801 217.797 295.643 209.891C296.718 206.899 297.375 203.971 297.769 201.349C297.246 201.842 296.707 202.347 296.154 202.862C291.023 207.638 284.512 213.411 279.597 216.721C276.611 218.731 275.881 221.337 275.492 225.134C275.444 225.597 275.4 226.12 275.353 226.679C275.243 227.973 275.118 229.457 274.9 230.819ZM298.21 191.417C298.21 191.414 298.21 191.412 298.21 191.412L298.21 191.416L298.21 191.417Z" fill="#9D9C45"/>
<path fill-rule="evenodd" clip-rule="evenodd" d="M144.101 398.035H115.411V425.882H144.101V398.035ZM106.973 389.597V434.32H152.539V389.597H106.973Z" fill="#9D9C45"/>
<path fill-rule="evenodd" clip-rule="evenodd" d="M348.307 398.035H320.461V425.882H348.307V398.035ZM312.022 389.597V434.32H356.745V389.597H312.022Z" fill="#9D9C45"/>
<path fill-rule="evenodd" clip-rule="evenodd" d="M230.791 405.422L276.033 464.698H399.78V473.136H271.858L230.798 419.339L189.823 473.136H73.2188V464.698H185.643L230.791 405.422Z" fill="#9D9C45"/>
<path fill-rule="evenodd" clip-rule="evenodd" d="M182.917 527.141V469.761H191.355V527.141H182.917Z" fill="#9D9C45"/>
<path fill-rule="evenodd" clip-rule="evenodd" d="M125.536 527.141V469.761H133.974V527.141H125.536Z" fill="#9D9C45"/>
<path fill-rule="evenodd" clip-rule="evenodd" d="M182.917 468.073L182.917 384.534L191.355 384.534L191.355 468.073L182.917 468.073Z" fill="#9D9C45"/>
<path fill-rule="evenodd" clip-rule="evenodd" d="M267.3 468.073L267.3 384.534L275.738 384.534L275.738 468.073L267.3 468.073Z" fill="#9D9C45"/>
<path fill-rule="evenodd" clip-rule="evenodd" d="M269.831 527.141V469.761H278.269V527.141H269.831Z" fill="#9D9C45"/>
<path fill-rule="evenodd" clip-rule="evenodd" d="M326.368 527.141V469.761H334.806V527.141H326.368Z" fill="#9D9C45"/>
<path fill-rule="evenodd" clip-rule="evenodd" d="M275.738 387.909L182.917 387.909L182.917 379.471L275.738 379.471L275.738 387.909Z" fill="#9D9C45"/>
<path fill-rule="evenodd" clip-rule="evenodd" d="M303.576 217.456H387.219V235.647L403.524 250.634L397.813 256.847L378.781 239.352V225.894H312.014V239.352L292.982 256.847L287.271 250.634L303.576 235.647V217.456Z" fill="#9D9C45"/>
<path fill-rule="evenodd" clip-rule="evenodd" d="M396.871 258.382H292.658V249.943H396.871V258.382Z" fill="#9D9C45"/>
<path fill-rule="evenodd" clip-rule="evenodd" d="M344.932 256.272V335.17H336.494V256.272H344.932Z" fill="#9D9C45"/>
<path fill-rule="evenodd" clip-rule="evenodd" d="M396.106 329.787L339.147 258.483L345.74 253.217L402.699 324.52L396.106 329.787Z" fill="#9D9C45"/>
<path fill-rule="evenodd" clip-rule="evenodd" d="M147.054 171.045H117.52C114.025 171.045 111.191 173.879 111.191 177.374C111.191 180.869 114.025 183.703 117.52 183.703H147.054C150.549 183.703 153.383 180.869 153.383 177.374C153.383 173.879 150.549 171.045 147.054 171.045ZM117.52 162.607C109.364 162.607 102.753 169.218 102.753 177.374C102.753 185.53 109.364 192.141 117.52 192.141H147.054C155.21 192.141 161.821 185.53 161.821 177.374C161.821 169.218 155.21 162.607 147.054 162.607H117.52Z" fill="#9D9C45"/>
<path fill-rule="evenodd" clip-rule="evenodd" d="M149.127 204.243C146.386 198.798 144.529 192.982 144.117 188.291L152.523 187.553C152.815 190.878 154.245 195.644 156.664 200.448C159.077 205.241 162.264 209.651 165.754 212.499C167.013 213.526 168.265 214.524 169.501 215.509C175.783 220.519 181.648 225.196 185.908 231.635C191.18 239.602 193.887 249.921 193.887 266.398V344.874H185.449V266.398C185.449 250.809 182.882 242.353 178.871 236.291C175.407 231.056 170.77 227.344 164.524 222.345C163.227 221.306 161.86 220.212 160.42 219.038C155.719 215.203 151.874 209.698 149.127 204.243Z" fill="#9D9C45"/>
<path fill-rule="evenodd" clip-rule="evenodd" d="M113.76 204.243C116.501 198.798 118.358 192.982 118.77 188.291L110.364 187.553C110.072 190.878 108.642 195.644 106.223 200.448C103.81 205.241 100.623 209.651 97.1325 212.499C95.8736 213.526 94.6218 214.524 93.3862 215.509C87.1038 220.519 81.239 225.196 76.9783 231.635C71.7067 239.602 68.9998 249.921 68.9998 266.398V322.513H77.4381V266.398C77.4381 250.809 80.0051 242.353 84.0156 236.291C87.4795 231.056 92.1166 227.344 98.3625 222.345C99.6598 221.306 101.027 220.212 102.467 219.038C107.168 215.203 111.013 209.698 113.76 204.243Z" fill="#9D9C45"/>
<path d="M569.5 311.14C585.1 311.14 602.52 302.82 602.52 283.84C602.52 262.26 586.4 255.24 554.42 246.14C522.96 237.3 499.04 224.82 499.04 185.56C499.04 156.44 520.62 129.14 560.66 129.14C584.58 129.14 598.1 137.2 606.94 137.2C611.36 137.2 612.66 135.38 614.48 132H617.34L619.16 184.52H615C601.74 160.6 584.06 134.6 557.28 134.6C538.56 134.6 525.56 145.52 525.56 160.86C525.56 180.1 543.24 186.6 569.5 193.62C598.36 201.42 630.34 211.3 630.34 254.46C630.34 291.9 604.86 316.6 566.64 316.6C541.42 316.6 519.58 308.8 512.3 308.8C508.14 308.8 506.58 311.66 504.5 316.6H500.86L498.26 254.72H502.68C515.68 280.72 540.9 311.14 569.5 311.14ZM705.898 252.9H713.438V232.88C713.438 199.86 710.578 191.28 700.178 191.28C695.498 191.28 687.958 193.36 687.958 201.68C687.958 203.76 688.478 206.36 689.518 209.22H696.018C697.318 212.6 698.098 215.98 698.098 220.92C698.098 233.14 688.218 241.2 675.218 241.2C659.098 241.2 652.858 232.36 652.858 219.62C652.858 197.78 671.838 187.64 707.198 187.64C748.018 187.64 761.798 199.08 761.798 236.78V289.56C761.798 300.22 764.918 303.08 769.338 303.08C774.018 303.08 778.438 298.14 779.738 276.3L783.638 276.56C782.338 307.76 772.718 316.6 750.358 316.6C729.298 316.6 717.598 310.1 714.478 297.36C710.318 309.84 702.778 316.6 684.578 316.6C666.378 316.6 646.098 311.14 646.098 285.14C646.098 258.88 668.718 252.9 705.898 252.9ZM702.258 306.2C707.198 306.2 713.438 297.88 713.438 281.24V257.06H711.618C700.698 257.06 695.498 264.86 695.498 280.72V284.88C695.498 303.6 697.318 306.2 702.258 306.2ZM786.194 119H848.854V214.16C853.274 201.16 861.854 187.64 887.594 187.64C911.774 187.64 927.894 199.6 927.894 231.06V309.32H942.454V314H868.874V309.32H879.534V224.82C879.534 202.72 876.414 200.12 869.914 200.12C858.994 200.12 848.854 216.5 848.854 237.56V309.32H860.034V314H786.194V309.32H800.494V123.68H786.194V119ZM1008.81 252.9H1016.35V232.88C1016.35 199.86 1013.49 191.28 1003.09 191.28C998.409 191.28 990.869 193.36 990.869 201.68C990.869 203.76 991.389 206.36 992.429 209.22H998.929C1000.23 212.6 1001.01 215.98 1001.01 220.92C1001.01 233.14 991.129 241.2 978.129 241.2C962.009 241.2 955.769 232.36 955.769 219.62C955.769 197.78 974.749 187.64 1010.11 187.64C1050.93 187.64 1064.71 199.08 1064.71 236.78V289.56C1064.71 300.22 1067.83 303.08 1072.25 303.08C1076.93 303.08 1081.35 298.14 1082.65 276.3L1086.55 276.56C1085.25 307.76 1075.63 316.6 1053.27 316.6C1032.21 316.6 1020.51 310.1 1017.39 297.36C1013.23 309.84 1005.69 316.6 987.489 316.6C969.289 316.6 949.009 311.14 949.009 285.14C949.009 258.88 971.629 252.9 1008.81 252.9ZM1005.17 306.2C1010.11 306.2 1016.35 297.88 1016.35 281.24V257.06H1014.53C1003.61 257.06 998.409 264.86 998.409 280.72V284.88C998.409 303.6 1000.23 306.2 1005.17 306.2ZM1172.04 198.82C1161.38 198.82 1151.76 211.3 1151.76 233.92V282.28C1151.76 296.32 1157.74 309.06 1168.66 309.06C1181.4 309.06 1184 293.72 1184 257.58V244.06C1184 207.4 1180.88 198.82 1172.04 198.82ZM1151.76 119V210C1157.48 197 1166.84 187.64 1186.6 187.64C1216.24 187.64 1234.18 207.92 1234.18 252.38C1234.18 296.84 1215.98 316.6 1180.62 316.6C1162.68 316.6 1153.84 311.66 1150.2 298.66L1148.38 314H1089.1V309.32H1103.4V123.68H1089.1V119H1151.76ZM1304.36 252.9H1311.9V232.88C1311.9 199.86 1309.04 191.28 1298.64 191.28C1293.96 191.28 1286.42 193.36 1286.42 201.68C1286.42 203.76 1286.94 206.36 1287.98 209.22H1294.48C1295.78 212.6 1296.56 215.98 1296.56 220.92C1296.56 233.14 1286.68 241.2 1273.68 241.2C1257.56 241.2 1251.32 232.36 1251.32 219.62C1251.32 197.78 1270.3 187.64 1305.66 187.64C1346.48 187.64 1360.26 199.08 1360.26 236.78V289.56C1360.26 300.22 1363.38 303.08 1367.8 303.08C1372.48 303.08 1376.9 298.14 1378.2 276.3L1382.1 276.56C1380.8 307.76 1371.18 316.6 1348.82 316.6C1327.76 316.6 1316.06 310.1 1312.94 297.36C1308.78 309.84 1301.24 316.6 1283.04 316.6C1264.84 316.6 1244.56 311.14 1244.56 285.14C1244.56 258.88 1267.18 252.9 1304.36 252.9ZM1300.72 306.2C1305.66 306.2 1311.9 297.88 1311.9 281.24V257.06H1310.08C1299.16 257.06 1293.96 264.86 1293.96 280.72V284.88C1293.96 303.6 1295.78 306.2 1300.72 306.2ZM1393.84 276.82V194.92H1379.54V190.24H1393.84V156.7L1442.2 144.74V190.24H1476V194.92H1442.2V282.54C1442.2 297.88 1444.54 306.2 1453.64 306.2C1466.12 306.2 1473.92 294.76 1476.26 277.08L1480.68 277.6C1478.34 297.88 1469.76 316.6 1438.04 316.6C1412.3 316.6 1393.84 309.06 1393.84 276.82Z" fill="#9D9C45"/>
<path d="M530.5 470.46C538.9 470.46 548.28 465.98 548.28 455.76C548.28 444.14 539.6 440.36 522.38 435.46C505.44 430.7 492.56 423.98 492.56 402.84C492.56 387.16 504.18 372.46 525.74 372.46C538.62 372.46 545.9 376.8 550.66 376.8C553.04 376.8 553.74 375.82 554.72 374H556.26L557.24 402.28H555C547.86 389.4 538.34 375.4 523.92 375.4C513.84 375.4 506.84 381.28 506.84 389.54C506.84 399.9 516.36 403.4 530.5 407.18C546.04 411.38 563.26 416.7 563.26 439.94C563.26 460.1 549.54 473.4 528.96 473.4C515.38 473.4 503.62 469.2 499.7 469.2C497.46 469.2 496.62 470.74 495.5 473.4H493.54L492.14 440.08H494.52C501.52 454.08 515.1 470.46 530.5 470.46ZM571.885 374H644.685L646.085 401.72H643.565C635.865 383.38 629.285 377.08 612.345 377.08H607.445V420.34H612.205C621.305 420.34 627.185 412.64 629.565 402H631.665V443.44H629.285C625.925 429.44 620.605 423.98 610.805 423.98H607.445V468.92H612.765C630.545 468.92 642.865 456.74 647.065 441.48H649.865L648.745 472H571.885V468.92H580.145V377.08H571.885V374ZM733.029 374H770.409V376.66H762.709V469.34H770.409V472H727.709V469.34H735.409V381.84H734.849L713.849 472H696.349L671.709 381.42H671.149V469.34H678.849V472H659.809V469.34H667.509V376.66H659.809V374H697.609L716.229 446.1L733.029 374ZM776.827 374H818.687C843.327 374 857.607 379.6 857.607 396.96C857.607 410.4 849.207 417.54 834.507 419.92V420.2C852.147 422.44 862.507 429.86 862.507 444.56C862.507 466.26 844.307 472 817.987 472H776.827V469.34H785.927V376.66H776.827V374ZM813.227 422.44V469.34H819.807C830.587 469.34 833.667 461.22 833.667 448.34V440.92C833.667 429.44 830.027 422.44 816.447 422.44H813.227ZM813.227 376.66V419.78H816.867C826.947 419.78 829.887 413.34 829.887 401.86V395.28C829.887 381.84 827.507 376.66 817.707 376.66H813.227ZM922.414 469.34L912.194 439.1H884.474L873.694 469.34H884.194V472H862.774V469.34H869.354L905.054 373.16H916.534L951.814 469.34H958.254V472H912.474V469.34H922.414ZM898.894 399.34L885.734 436.02H911.074L898.894 399.34ZM962.641 374H1005.34V376.66H997.641V420.9L998.761 420.62L1038.24 376.66H1027.18V374H1051.68V376.66H1043.28L1019.2 403.54L1052.8 469.34H1060.36V472H1015.42V469.34H1022L998.901 424.68L997.641 424.96V469.34H1005.34V472H962.641V469.34H970.341V376.66H962.641V374ZM1122.25 428.74V418.38C1122.25 389.68 1121.41 375.4 1104.61 375.4C1087.67 375.4 1086.55 390.24 1086.55 418.94V429.02C1086.55 455.34 1088.23 470.46 1104.61 470.46C1120.29 470.46 1122.25 456.88 1122.25 428.74ZM1057.85 424.54C1057.85 392.34 1074.51 372.46 1105.73 372.46C1135.83 372.46 1151.09 390.94 1151.09 422.72C1151.09 453.94 1136.39 473.4 1104.05 473.4C1072.83 473.4 1057.85 455.34 1057.85 424.54Z" fill="#9D9C45"/>
</svg>
