<svg width="537" height="843" viewBox="0 0 537 843" fill="none" xmlns="http://www.w3.org/2000/svg">
<path fill-rule="evenodd" clip-rule="evenodd" d="M75 120C75 95.1472 95.1472 75 120 75H233.67C236.431 75 238.67 77.2386 238.67 80V80C238.67 82.7614 236.431 85 233.67 85H120C100.67 85 85 100.67 85 120V366.826C85 369.132 85.1587 370.895 85.6802 372.372C88.1096 379.251 95.1234 389 110.476 389C118.95 389 125.943 384.199 131.129 378.75C133.677 376.073 135.65 373.379 136.989 371.355C137.655 370.348 138.158 369.515 138.493 368.943C138.65 368.674 138.771 368.462 138.864 368.299L138.888 368.256C138.927 368.188 138.983 368.089 139.032 368.007L139.034 368.004C139.051 367.974 139.123 367.852 139.215 367.716L139.217 367.713C139.238 367.682 139.426 367.399 139.708 367.095C139.801 366.998 140.04 366.77 140.189 366.642C140.333 366.531 140.64 366.334 140.967 366.149C141.388 365.91 141.849 365.745 142.333 365.717C143.036 365.676 143.976 365.739 144.827 365.915C145.704 366.097 146.478 366.599 147.018 367.313C147.639 368.134 148.157 369.094 148.288 369.589C149.465 375.944 156.164 389 173.848 389C182.37 389 189.378 384.306 194.535 378.965C197.075 376.333 199.035 373.674 200.353 371.653C201.01 370.644 201.492 369.817 201.796 369.26C201.911 369.049 201.993 368.891 202.044 368.788C202.052 368.766 202.06 368.745 202.068 368.723C202.437 367.751 203.686 365.687 206.414 365.506C208.327 365.38 209.591 366.373 209.819 366.552L209.83 366.56C210.232 366.875 210.493 367.181 210.594 367.303C210.819 367.574 210.966 367.81 211.007 367.876C211.069 367.977 211.117 368.062 211.144 368.111C211.231 368.267 211.31 368.429 211.342 368.495L211.346 368.502C211.489 368.794 211.493 368.809 211.683 369.194C211.958 369.756 212.372 370.573 212.927 371.565C214.046 373.561 215.722 376.226 217.962 378.877C222.502 384.248 228.853 389 237.219 389C245.692 389 252.686 384.199 257.871 378.75C260.42 376.073 262.392 373.379 263.731 371.355C264.397 370.348 264.9 369.515 265.235 368.943C265.403 368.656 265.53 368.434 265.625 368.267L265.63 368.258C265.669 368.189 265.726 368.089 265.774 368.007L265.776 368.004C265.794 367.974 265.866 367.852 265.958 367.716L265.959 367.713C265.98 367.682 266.168 367.399 266.45 367.095C266.543 366.998 266.783 366.77 266.932 366.642C267.076 366.53 267.383 366.334 267.709 366.149C268.131 365.91 268.592 365.745 269.075 365.717C269.779 365.676 270.718 365.739 271.569 365.915C272.446 366.097 273.22 366.599 273.761 367.313C274.382 368.134 274.899 369.094 275.03 369.589C276.207 375.944 282.907 389 300.59 389C309.061 389 316.053 384.195 321.24 378.742C323.788 376.062 325.761 373.367 327.101 371.342C327.768 370.335 328.272 369.502 328.609 368.928C328.753 368.684 328.864 368.49 328.956 368.33L329.006 368.243C329.046 368.174 329.112 368.059 329.172 367.96C329.186 367.936 329.278 367.783 329.401 367.61C329.406 367.604 329.662 367.226 330.07 366.845C330.202 366.726 330.544 366.454 330.759 366.307C330.977 366.178 331.444 365.971 331.923 365.8C332.457 365.608 333.028 365.53 333.588 365.621C334.326 365.741 335.226 366.007 335.971 366.34C336.642 366.64 337.191 367.153 337.567 367.784C337.968 368.455 338.305 369.202 338.401 369.589C338.361 369.374 338.316 369.211 338.301 369.158C338.28 369.084 338.262 369.027 338.252 368.997C338.232 368.936 338.218 368.897 338.216 368.892V368.892C338.216 368.892 338.216 368.892 338.216 368.892C338.22 368.901 338.229 368.924 338.245 368.963C338.294 369.084 338.382 369.292 338.512 369.576C338.771 370.143 339.174 370.969 339.725 371.967C340.831 373.972 342.491 376.593 344.713 379.179C349.196 384.395 355.528 389 363.961 389C372.484 389 379.492 384.306 384.648 378.965C387.189 376.333 389.149 373.674 390.466 371.653C391.123 370.644 391.606 369.817 391.91 369.26C392.026 369.047 392.108 368.889 392.159 368.786C392.218 368.623 392.289 368.454 392.374 368.283C393.054 366.904 394.536 365.607 396.604 365.502C398.103 365.426 399.156 366.042 399.443 366.215C399.853 366.461 400.135 366.713 400.264 366.832C400.533 367.082 400.715 367.307 400.774 367.38C400.857 367.483 400.92 367.57 400.958 367.622C401.083 367.797 401.195 367.976 401.236 368.042C401.294 368.135 401.383 368.279 401.478 368.432C401.547 368.544 401.618 368.66 401.683 368.764C402.041 369.342 402.567 370.174 403.258 371.183C404.647 373.212 406.686 375.925 409.302 378.628C414.636 384.139 421.761 389 430.235 389C440.521 389 450.026 381.067 456.476 373.674C460.284 369.311 462 363.307 462 356.759V120C462 100.67 446.33 85 427 85H413.95C411.189 85 408.95 82.7614 408.95 80V80C408.95 77.2386 411.189 75 413.95 75H427C451.853 75 472 95.1472 472 120V356.759C472 364.914 469.871 373.534 464.011 380.249C457.341 387.893 445.239 399 430.235 399C417.811 399 408.247 391.917 402.116 385.582V385.582C399.422 382.799 394.768 382.842 392.095 385.647C392.012 385.735 391.927 385.822 391.843 385.91C385.776 392.194 376.337 399 363.961 399C351.496 399 342.637 392.105 337.129 385.696V385.696C334.966 383.18 330.931 383.041 328.655 385.455C328.599 385.514 328.542 385.574 328.486 385.633C322.457 391.972 313.017 399 300.59 399C286.732 399 277.682 392.963 272.164 386.06C270.433 383.895 267.026 383.637 265.115 385.644V385.644C259.084 391.981 249.643 399 237.219 399C224.686 399 215.8 391.809 210.325 385.333V385.333C208.33 382.973 204.574 382.863 202.471 385.127C202.228 385.388 201.981 385.649 201.729 385.91C195.662 392.194 186.223 399 173.848 399C159.989 399 150.94 392.963 145.421 386.06C143.691 383.895 140.283 383.637 138.373 385.644V385.644C132.342 391.981 122.901 399 110.476 399C89.6666 399 79.6385 385.293 76.251 375.702C75.1445 372.569 75 369.408 75 366.826V120ZM211.742 370.5C211.742 370.582 211.742 370.768 211.715 371.023C211.731 370.869 211.742 370.692 211.742 370.5ZM274.377 373.106C274.378 373.104 274.378 373.104 274.377 373.106V373.106V373.106ZM401.856 370.5C401.856 370.607 401.855 370.816 401.821 371.092C401.841 370.923 401.856 370.722 401.856 370.5ZM80 421C82.7614 421 85 423.239 85 426V560.5C85 579.83 100.67 595.5 120 595.5H427C446.33 595.5 462 579.83 462 560.5V426C462 423.239 464.239 421 467 421V421C469.761 421 472 423.239 472 426V560.5C472 585.353 451.853 605.5 427 605.5H120C95.1472 605.5 75 585.353 75 560.5V426C75 423.239 77.2386 421 80 421V421Z" fill="#9D9C45"/>
<path fill-rule="evenodd" clip-rule="evenodd" d="M236.051 115C236.051 117.761 233.812 120 231.051 120H113.051C110.289 120 108.051 117.761 108.051 115V115C108.051 112.239 110.289 110 113.051 110H231.051C233.812 110 236.051 112.239 236.051 115V115Z" fill="#9D9C45"/>
<path fill-rule="evenodd" clip-rule="evenodd" d="M441.051 115C441.051 117.761 438.812 120 436.051 120L404.051 120C401.289 120 399.051 117.761 399.051 115V115C399.051 112.239 401.289 110 404.051 110L436.051 110C438.812 110 441.051 112.239 441.051 115V115Z" fill="#9D9C45"/>
<path fill-rule="evenodd" clip-rule="evenodd" d="M144 145C144 147.761 141.761 150 139 150H113C110.239 150 108 147.761 108 145V145C108 142.239 110.239 140 113 140H139C141.761 140 144 142.239 144 145V145Z" fill="#9D9C45"/>
<path fill-rule="evenodd" clip-rule="evenodd" d="M441.051 145C441.051 147.761 438.812 150 436.051 150L392.051 150C389.289 150 387.051 147.761 387.051 145V145C387.051 142.239 389.289 140 392.051 140L436.051 140C438.812 140 441.051 142.239 441.051 145V145Z" fill="#9D9C45"/>
<rect x="295" y="52" width="56" height="56" rx="28" stroke="#9D9C45" stroke-width="10"/>
<path fill-rule="evenodd" clip-rule="evenodd" d="M280 80C280 82.7614 277.761 85 275 85H252C249.239 85 247 82.7614 247 80V80C247 77.2386 249.239 75 252 75H275C277.761 75 280 77.2386 280 80V80Z" fill="#9D9C45"/>
<path fill-rule="evenodd" clip-rule="evenodd" d="M399 80C399 82.7614 396.761 85 394 85L371 85C368.239 85 366 82.7614 366 80V80C366 77.2386 368.239 75 371 75L394 75C396.761 75 399 77.2386 399 80V80Z" fill="#9D9C45"/>
<path fill-rule="evenodd" clip-rule="evenodd" d="M323 0C325.761 0 328 2.23858 328 5V28C328 30.7614 325.761 33 323 33V33C320.239 33 318 30.7614 318 28V5C318 2.23858 320.239 0 323 0V0Z" fill="#9D9C45"/>
<path fill-rule="evenodd" clip-rule="evenodd" d="M323 124C325.761 124 328 126.239 328 129V152C328 154.761 325.761 157 323 157V157C320.239 157 318 154.761 318 152V129C318 126.239 320.239 124 323 124V124Z" fill="#9D9C45"/>
<path fill-rule="evenodd" clip-rule="evenodd" d="M268.536 27.963C270.488 26.0104 273.654 26.0104 275.607 27.963L283.974 36.3305C285.927 38.2831 285.927 41.4489 283.974 43.4015V43.4015C282.021 45.3542 278.856 45.3542 276.903 43.4015L268.536 35.0341C266.583 33.0815 266.583 29.9157 268.536 27.963V27.963Z" fill="#9D9C45"/>
<path fill-rule="evenodd" clip-rule="evenodd" d="M354.536 113.536C356.488 111.583 359.654 111.583 361.607 113.536L369.974 121.903C371.927 123.856 371.927 127.021 369.974 128.974V128.974C368.021 130.927 364.856 130.927 362.903 128.974L354.536 120.607C352.583 118.654 352.583 115.488 354.536 113.536V113.536Z" fill="#9D9C45"/>
<path fill-rule="evenodd" clip-rule="evenodd" d="M373.678 27.2912C371.726 25.3386 368.56 25.3386 366.607 27.2912L358.24 35.6586C356.287 37.6112 356.287 40.7771 358.24 42.7297V42.7297C360.192 44.6823 363.358 44.6823 365.311 42.7297L373.678 34.3623C375.631 32.4096 375.631 29.2438 373.678 27.2912V27.2912Z" fill="#9D9C45"/>
<path fill-rule="evenodd" clip-rule="evenodd" d="M283.974 116.536C282.022 114.583 278.856 114.583 276.903 116.536L268.536 124.903C266.583 126.856 266.583 130.021 268.536 131.974V131.974C270.488 133.927 273.654 133.927 275.607 131.974L283.974 123.607C285.927 121.654 285.927 118.488 283.974 116.536V116.536Z" fill="#9D9C45"/>
<path d="M218 299V196C241.667 200 289 220.4 289 270C289 319.6 289 371.333 289 391" stroke="#9D9C45" stroke-width="10"/>
<path d="M288 258H249C250.696 265.333 260.87 280 288 280" stroke="#9D9C45" stroke-width="10"/>
<path d="M288 307H249C250.696 314.333 260.87 329 288 329" stroke="#9D9C45" stroke-width="10"/>
<path d="M289.085 285.471C288.306 275.98 292.591 257 313.627 257C337 257 337 285.471 337 285.471V378" stroke="#9D9C45" stroke-width="10"/>
<path fill-rule="evenodd" clip-rule="evenodd" d="M315 307C315 304.239 317.239 302 320 302H333C335.761 302 338 304.239 338 307V307C338 309.761 335.761 312 333 312H320C317.239 312 315 309.761 315 307V307Z" fill="#9D9C45"/>
<path fill-rule="evenodd" clip-rule="evenodd" d="M315 344C315 341.239 317.239 339 320 339H333C335.761 339 338 341.239 338 344V344C338 346.761 335.761 349 333 349H320C317.239 349 315 346.761 315 344V344Z" fill="#9D9C45"/>
<path d="M278.333 194.056C273.192 212.517 311.247 251.134 312.307 256.488L302.886 170C296.415 171.865 282.445 179.287 278.333 194.056Z" stroke="#9D9C45" stroke-width="10"/>
<path d="M311.269 255.472C317.38 249.111 310.896 236.31 321.781 228.981C332.7 221.63 351.605 202.623 351.605 202.623C351.605 202.623 356.467 248.662 310.532 257.331" stroke="#9D9C45" stroke-width="10"/>
<rect x="125" y="443" width="44" height="43" stroke="#9D9C45" stroke-width="10"/>
<rect x="368" y="443" width="43" height="43" stroke="#9D9C45" stroke-width="10"/>
<path d="M80 532H215.708L266.739 465L317.876 532H467" stroke="#9D9C45" stroke-width="10"/>
<path d="M215 533V601" stroke="#9D9C45" stroke-width="10"/>
<path d="M147 533V601" stroke="#9D9C45" stroke-width="10"/>
<path d="M215 432L215 531" stroke="#9D9C45" stroke-width="10"/>
<path d="M315 432L315 531" stroke="#9D9C45" stroke-width="10"/>
<path d="M318 533V601" stroke="#9D9C45" stroke-width="10"/>
<path d="M385 533V601" stroke="#9D9C45" stroke-width="10"/>
<path d="M210 431L320 431" stroke="#9D9C45" stroke-width="10"/>
<path d="M337.051 277L357.989 257.753V239H447.112V257.753L468.051 277" stroke="#9D9C45" stroke-width="10"/>
<path d="M340.051 277.5H463.551" stroke="#9D9C45" stroke-width="10"/>
<path d="M397 373.5V280" stroke="#9D9C45" stroke-width="10"/>
<path d="M399.051 279.5L466.551 364" stroke="#9D9C45" stroke-width="10"/>
<rect x="120" y="174" width="60" height="25" rx="12.5" stroke="#9D9C45" stroke-width="10"/>
<path d="M169 199C169.833 208.5 176.792 224.08 186.5 232C205.5 247.5 218 254 218 292C218 322.4 218 366.667 218 385" stroke="#9D9C45" stroke-width="10"/>
<path d="M129 199C128.167 208.5 121.208 224.08 111.5 232C92.5 247.5 80 254 80 292C80 322.4 80 340.167 80 358.5" stroke="#9D9C45" stroke-width="10"/>
<path d="M45.5 755.46C53.9 755.46 63.28 750.98 63.28 740.76C63.28 729.14 54.6 725.36 37.38 720.46C20.44 715.7 7.56 708.98 7.56 687.84C7.56 672.16 19.18 657.46 40.74 657.46C53.62 657.46 60.9 661.8 65.66 661.8C68.04 661.8 68.74 660.82 69.72 659H71.26L72.24 687.28H70C62.86 674.4 53.34 660.4 38.92 660.4C28.84 660.4 21.84 666.28 21.84 674.54C21.84 684.9 31.36 688.4 45.5 692.18C61.04 696.38 78.26 701.7 78.26 724.94C78.26 745.1 64.54 758.4 43.96 758.4C30.38 758.4 18.62 754.2 14.7 754.2C12.46 754.2 11.62 755.74 10.5 758.4H8.54L7.14 725.08H9.52C16.52 739.08 30.1 755.46 45.5 755.46ZM118.945 724.1H123.005V713.32C123.005 695.54 121.465 690.92 115.865 690.92C113.345 690.92 109.285 692.04 109.285 696.52C109.285 697.64 109.565 699.04 110.125 700.58H113.625C114.325 702.4 114.745 704.22 114.745 706.88C114.745 713.46 109.425 717.8 102.425 717.8C93.7453 717.8 90.3853 713.04 90.3853 706.18C90.3853 694.42 100.605 688.96 119.645 688.96C141.625 688.96 149.045 695.12 149.045 715.42V743.84C149.045 749.58 150.725 751.12 153.105 751.12C155.625 751.12 158.005 748.46 158.705 736.7L160.805 736.84C160.105 753.64 154.925 758.4 142.885 758.4C131.545 758.4 125.245 754.9 123.565 748.04C121.325 754.76 117.265 758.4 107.465 758.4C97.6653 758.4 86.7453 755.46 86.7453 741.46C86.7453 727.32 98.9253 724.1 118.945 724.1ZM116.985 752.8C119.645 752.8 123.005 748.32 123.005 739.36V726.34H122.025C116.145 726.34 113.345 730.54 113.345 739.08V741.32C113.345 751.4 114.325 752.8 116.985 752.8ZM162.181 652H195.921V703.24C198.301 696.24 202.921 688.96 216.781 688.96C229.801 688.96 238.481 695.4 238.481 712.34V754.48H246.321V757H206.701V754.48H212.441V708.98C212.441 697.08 210.761 695.68 207.261 695.68C201.381 695.68 195.921 704.5 195.921 715.84V754.48H201.941V757H162.181V754.48H169.881V654.52H162.181V652ZM282.051 724.1H286.111V713.32C286.111 695.54 284.571 690.92 278.971 690.92C276.451 690.92 272.391 692.04 272.391 696.52C272.391 697.64 272.671 699.04 273.231 700.58H276.731C277.431 702.4 277.851 704.22 277.851 706.88C277.851 713.46 272.531 717.8 265.531 717.8C256.851 717.8 253.491 713.04 253.491 706.18C253.491 694.42 263.711 688.96 282.751 688.96C304.731 688.96 312.151 695.12 312.151 715.42V743.84C312.151 749.58 313.831 751.12 316.211 751.12C318.731 751.12 321.111 748.46 321.811 736.7L323.911 736.84C323.211 753.64 318.031 758.4 305.991 758.4C294.651 758.4 288.351 754.9 286.671 748.04C284.431 754.76 280.371 758.4 270.571 758.4C260.771 758.4 249.851 755.46 249.851 741.46C249.851 727.32 262.031 724.1 282.051 724.1ZM280.091 752.8C282.751 752.8 286.111 748.32 286.111 739.36V726.34H285.131C279.251 726.34 276.451 730.54 276.451 739.08V741.32C276.451 751.4 277.431 752.8 280.091 752.8ZM369.947 694.98C364.207 694.98 359.027 701.7 359.027 713.88V739.92C359.027 747.48 362.247 754.34 368.127 754.34C374.987 754.34 376.387 746.08 376.387 726.62V719.34C376.387 699.6 374.707 694.98 369.947 694.98ZM359.027 652V701C362.107 694 367.147 688.96 377.787 688.96C393.747 688.96 403.407 699.88 403.407 723.82C403.407 747.76 393.607 758.4 374.567 758.4C364.907 758.4 360.147 755.74 358.187 748.74L357.207 757H325.287V754.48H332.987V654.52H325.287V652H359.027ZM441.191 724.1H445.251V713.32C445.251 695.54 443.711 690.92 438.111 690.92C435.591 690.92 431.531 692.04 431.531 696.52C431.531 697.64 431.811 699.04 432.371 700.58H435.871C436.571 702.4 436.991 704.22 436.991 706.88C436.991 713.46 431.671 717.8 424.671 717.8C415.991 717.8 412.631 713.04 412.631 706.18C412.631 694.42 422.851 688.96 441.891 688.96C463.871 688.96 471.291 695.12 471.291 715.42V743.84C471.291 749.58 472.971 751.12 475.351 751.12C477.871 751.12 480.251 748.46 480.951 736.7L483.051 736.84C482.351 753.64 477.171 758.4 465.131 758.4C453.791 758.4 447.491 754.9 445.811 748.04C443.571 754.76 439.511 758.4 429.711 758.4C419.911 758.4 408.991 755.46 408.991 741.46C408.991 727.32 421.171 724.1 441.191 724.1ZM439.231 752.8C441.891 752.8 445.251 748.32 445.251 739.36V726.34H444.271C438.391 726.34 435.591 730.54 435.591 739.08V741.32C435.591 751.4 436.571 752.8 439.231 752.8ZM489.377 736.98V692.88H481.677V690.36H489.377V672.3L515.417 665.86V690.36H533.617V692.88H515.417V740.06C515.417 748.32 516.677 752.8 521.577 752.8C528.297 752.8 532.497 746.64 533.757 737.12L536.137 737.4C534.877 748.32 530.257 758.4 513.177 758.4C499.317 758.4 489.377 754.34 489.377 736.98Z" fill="#9D9C45"/>
<circle cx="77.5" cy="819.5" r="10" fill="#9D9C45"/>
<path d="M135.3 841.296C139.14 841.296 143.428 839.248 143.428 834.576C143.428 829.264 139.46 827.536 131.588 825.296C123.844 823.12 117.956 820.048 117.956 810.384C117.956 803.216 123.268 796.496 133.124 796.496C139.012 796.496 142.34 798.48 144.516 798.48C145.604 798.48 145.924 798.032 146.372 797.2H147.076L147.524 810.128H146.5C143.236 804.24 138.884 797.84 132.292 797.84C127.684 797.84 124.484 800.528 124.484 804.304C124.484 809.04 128.836 810.64 135.3 812.368C142.404 814.288 150.276 816.72 150.276 827.344C150.276 836.56 144.004 842.64 134.596 842.64C128.388 842.64 123.012 840.72 121.22 840.72C120.196 840.72 119.812 841.424 119.3 842.64H118.404L117.764 827.408H118.852C122.052 833.808 128.26 841.296 135.3 841.296ZM154.219 797.2H187.499L188.139 809.872H186.987C183.467 801.488 180.459 798.608 172.715 798.608H170.475V818.384H172.651C176.811 818.384 179.499 814.864 180.587 810H181.547V828.944H180.459C178.923 822.544 176.491 820.048 172.011 820.048H170.475V840.592H172.907C181.035 840.592 186.667 835.024 188.587 828.048H189.867L189.355 842H154.219V840.592H157.995V798.608H154.219V797.2ZM227.885 797.2H244.973V798.416H241.453V840.784H244.973V842H225.453V840.784H228.972V800.784H228.717L219.117 842H211.117L199.853 800.592H199.597V840.784H203.117V842H194.413V840.784H197.933V798.416H194.413V797.2H211.693L220.205 830.16L227.885 797.2ZM247.907 797.2H267.043C278.307 797.2 284.835 799.76 284.835 807.696C284.835 813.84 280.995 817.104 274.275 818.192V818.32C282.339 819.344 287.075 822.736 287.075 829.456C287.075 839.376 278.755 842 266.723 842H247.907V840.784H252.067V798.416H247.907V797.2ZM264.547 819.344V840.784H267.555C272.483 840.784 273.891 837.072 273.891 831.184V827.792C273.891 822.544 272.227 819.344 266.019 819.344H264.547ZM264.547 798.416V818.128H266.211C270.819 818.128 272.163 815.184 272.163 809.936V806.928C272.163 800.784 271.075 798.416 266.595 798.416H264.547ZM314.461 840.784L309.789 826.96H297.117L292.189 840.784H296.989V842H287.197V840.784H290.205L306.525 796.816H311.773L327.901 840.784H330.845V842H309.917V840.784H314.461ZM303.708 808.784L297.693 825.552H309.277L303.708 808.784ZM332.85 797.2H352.37V798.416H348.85V818.64L349.362 818.512L367.41 798.416H362.354V797.2H373.554V798.416H369.714L358.706 810.704L374.066 840.784H377.522V842H356.978V840.784H359.986L349.426 820.368L348.85 820.496V840.784H352.37V842H332.85V840.784H336.37V798.416H332.85V797.2ZM405.814 822.224V817.488C405.814 804.368 405.43 797.84 397.75 797.84C390.006 797.84 389.494 804.624 389.494 817.744V822.352C389.494 834.384 390.262 841.296 397.75 841.296C404.918 841.296 405.814 835.088 405.814 822.224ZM376.374 820.304C376.374 805.584 383.99 796.496 398.262 796.496C412.022 796.496 418.998 804.944 418.998 819.472C418.998 833.744 412.278 842.64 397.494 842.64C383.222 842.64 376.374 834.384 376.374 820.304Z" fill="#9D9C45"/>
<circle cx="459.5" cy="819.5" r="10" fill="#9D9C45"/>
</svg>
